<?xml version="1.0" standalone="no"?>
<!DOCTYPE svg PUBLIC "-//W3C//DTD SVG 20010904//EN"
 "http://www.w3.org/TR/2001/REC-SVG-20010904/DTD/svg10.dtd">
<svg version="1.0" xmlns="http://www.w3.org/2000/svg"
 width="120.000000pt" height="120.000000pt" viewBox="0 0 120.000000 120.000000"
 preserveAspectRatio="xMidYMid meet">
<metadata>
Created by potrace 1.11, written by Peter Selinger 2001-2013
</metadata>
<g transform="translate(0.000000,120.000000) scale(0.100000,-0.100000)"
fill="#000000" stroke="none">
<path d="M640 1057 c-41 -15 -80 -46 -80 -64 0 -7 -15 -29 -32 -49 -18 -21
-32 -39 -30 -41 10 -14 -5 -19 -48 -15 -95 8 -115 -1 -189 -87 -33 -38 -44
-84 -24 -104 12 -12 6 -14 -39 -14 -46 -1 -56 -5 -80 -32 -15 -17 -28 -39 -29
-49 -2 -24 -2 -73 0 -97 2 -31 50 -100 82 -119 24 -14 28 -22 24 -44 -3 -15
-8 -43 -11 -62 -3 -19 -10 -42 -15 -51 -5 -10 -3 -23 7 -37 14 -20 97 -57 151
-67 16 -3 39 -7 53 -11 53 -12 170 -12 186 1 18 13 20 18 29 105 9 87 17 120
26 114 5 -3 9 -14 9 -24 0 -13 9 -22 25 -26 30 -8 108 -8 150 -1 111 18 178
36 215 59 22 14 22 11 -1 146 -11 60 -10 64 10 79 36 25 72 64 81 88 15 39 4
131 -21 174 -23 42 -31 45 -97 43 -30 -1 -31 0 -21 20 15 27 3 100 -19 119
-25 21 -172 59 -228 59 -27 -1 -65 -7 -84 -13z m398 -272 c18 -39 14 -96 -8
-132 -20 -34 -39 -43 -41 -20 -1 6 -3 23 -5 37 -2 14 -6 44 -8 68 -3 23 -7 46
-11 51 -6 11 11 19 41 20 13 1 25 -8 32 -24z m-796 -188 c4 -6 4 -15 2 -19 -6
-10 -12 -38 -19 -96 -3 -25 -6 -47 -8 -48 -1 -2 -16 7 -32 20 -58 47 -34 179
30 159 11 -3 23 -10 27 -16z"/>
</g>
</svg>
